<?xml version="1.0" encoding="UTF-8"?>
<svg xmlns="http://www.w3.org/2000/svg" xmlns:xlink="http://www.w3.org/1999/xlink" width="192px" height="192px" viewBox="0 0 192 192" version="1.1">
<g id="surface1">
<path style=" stroke:none;fill-rule:nonzero;fill:rgb(0%,0%,0%);fill-opacity:1;" d="M 21.980469 144 C 18.128906 144 14.832031 142.628906 12.101562 139.882812 C 9.367188 137.136719 8 133.835938 8 129.980469 C 8 126.128906 9.367188 122.832031 12.097656 120.101562 C 14.832031 117.367188 18.117188 116 21.953125 116 C 22.652344 116 23.332031 116.035156 24 116.101562 C 24.667969 116.167969 25.535156 116.332031 26.601562 116.601562 L 66.601562 76.601562 C 66.332031 75.535156 66.167969 74.667969 66.101562 74 C 66.035156 73.332031 66 72.652344 66 71.953125 C 66 68.117188 67.371094 64.832031 70.117188 62.097656 C 72.863281 59.367188 76.164062 58 80.019531 58 C 83.871094 58 87.167969 59.375 89.898438 62.125 C 92.632812 64.878906 94 68.183594 94 72.046875 C 94 72.28125 93.800781 73.800781 93.398438 76.601562 L 115.398438 98.601562 C 116.464844 98.332031 117.332031 98.167969 118 98.101562 C 118.667969 98.035156 119.332031 98 120 98 C 120.667969 98 121.332031 98.035156 122 98.101562 C 122.667969 98.167969 123.535156 98.332031 124.601562 98.601562 L 156.601562 66.601562 C 156.332031 65.535156 156.167969 64.667969 156.101562 64 C 156.035156 63.332031 156 62.652344 156 61.953125 C 156 58.117188 157.371094 54.832031 160.117188 52.097656 C 162.863281 49.367188 166.164062 48 170.019531 48 C 173.871094 48 177.167969 49.371094 179.898438 52.117188 C 182.632812 54.863281 184 58.164062 184 62.019531 C 184 65.871094 182.632812 69.167969 179.902344 71.898438 C 177.167969 74.632812 173.882812 76 170.046875 76 C 169.347656 76 168.667969 75.964844 168 75.898438 C 167.332031 75.832031 166.464844 75.667969 165.398438 75.398438 L 133.398438 107.398438 C 133.667969 108.464844 133.832031 109.332031 133.898438 110 C 133.964844 110.667969 134 111.347656 134 112.046875 C 134 115.882812 132.628906 119.167969 129.882812 121.902344 C 127.136719 124.632812 123.835938 126 119.980469 126 C 116.128906 126 112.832031 124.632812 110.101562 121.902344 C 107.367188 119.167969 106 115.882812 106 112.046875 C 106 111.347656 106.035156 110.667969 106.101562 110 C 106.167969 109.332031 106.332031 108.464844 106.601562 107.398438 L 84.601562 85.398438 C 83.535156 85.667969 82.667969 85.832031 82 85.898438 C 81.332031 85.964844 80.648438 86 79.949219 86 C 79.714844 86 78.199219 85.800781 75.398438 85.398438 L 35.398438 125.398438 C 35.667969 126.464844 35.832031 127.332031 35.898438 128 C 35.964844 128.667969 36 129.347656 36 130.046875 C 36 133.882812 34.628906 137.167969 31.882812 139.902344 C 29.136719 142.632812 25.835938 144 21.980469 144 Z M 21.980469 144 "/>
</g>
</svg>
