<?xml version="1.0" encoding="UTF-8"?>
<svg xmlns="http://www.w3.org/2000/svg" xmlns:xlink="http://www.w3.org/1999/xlink" width="192px" height="192px" viewBox="0 0 192 192" version="1.1">
<g id="surface1">
<path style=" stroke:none;fill-rule:nonzero;fill:rgb(0%,0%,0%);fill-opacity:1;" d="M 96 168 C 77.601562 168 61.566406 161.898438 47.898438 149.699219 C 34.234375 137.5 26.398438 122.265625 24.398438 104 L 40.800781 104 C 42.667969 117.867188 48.832031 129.332031 59.300781 138.398438 C 69.765625 147.464844 82 152 96 152 C 111.601562 152 124.832031 146.566406 135.699219 135.699219 C 146.566406 124.832031 152 111.601562 152 96 C 152 80.398438 146.566406 67.167969 135.699219 56.300781 C 124.832031 45.433594 111.601562 40 96 40 C 86.800781 40 78.199219 42.132812 70.199219 46.398438 C 62.199219 50.667969 55.464844 56.535156 50 64 L 72 64 L 72 80 L 24 80 L 24 32 L 40 32 L 40 50.800781 C 46.800781 42.265625 55.101562 35.667969 64.898438 31 C 74.699219 26.332031 85.066406 24 96 24 C 106 24 115.367188 25.898438 124.101562 29.699219 C 132.832031 33.5 140.433594 38.632812 146.898438 45.101562 C 153.367188 51.566406 158.5 59.167969 162.300781 67.898438 C 166.101562 76.632812 168 86 168 96 C 168 106 166.101562 115.367188 162.300781 124.101562 C 158.5 132.832031 153.367188 140.433594 146.898438 146.898438 C 140.433594 153.367188 132.832031 158.5 124.101562 162.300781 C 115.367188 166.101562 106 168 96 168 Z M 118.398438 129.601562 L 88 99.199219 L 88 56 L 104 56 L 104 92.800781 L 129.601562 118.398438 Z M 118.398438 129.601562 "/>
</g>
</svg>
