<?xml version="1.0" encoding="UTF-8"?>
<svg xmlns="http://www.w3.org/2000/svg" xmlns:xlink="http://www.w3.org/1999/xlink" width="180px" height="180px" viewBox="0 0 180 180" version="1.1">
<g id="surface1">
<path style=" stroke:none;fill-rule:nonzero;fill:rgb(11.372549%,72.54902%,32.941176%);fill-opacity:1;" d="M 34.101562 0.351562 C 64.601562 0.351562 95.054688 0.351562 125.59375 0.484375 C 125.816406 0.746094 125.945312 1.011719 126.167969 1.011719 C 130.648438 1.671875 134.78125 3.382812 138.648438 5.667969 C 145.152344 9.449219 150.160156 14.722656 153.589844 21.359375 C 157.542969 28.960938 158.6875 37.089844 157.5 45.570312 C 156.359375 54.183594 152.621094 61.566406 146.515625 67.632812 C 143.875 70.226562 140.625 72.289062 137.460938 74.3125 C 132.582031 77.386719 127.046875 78.835938 121.289062 79.058594 C 117.554688 79.234375 113.820312 79.101562 110.082031 79.015625 C 110.960938 75.980469 111.929688 73.125 112.675781 70.179688 C 113.203125 68.117188 112.9375 67.851562 110.785156 67.851562 C 96.503906 67.851562 82.222656 67.851562 67.9375 67.851562 C 66.09375 67.894531 64.203125 67.984375 62.359375 68.289062 C 46.671875 70.929688 35.507812 82.882812 34.1875 98.703125 C 33.179688 111.007812 37.925781 121.113281 47.726562 128.671875 C 52.867188 132.625 58.796875 135.175781 65.214844 135.265625 C 84.199219 135.527344 103.183594 135.351562 122.125 135.351562 C 124.144531 135.351562 124.453125 135.085938 123.96875 133.109375 C 123.179688 130.078125 122.210938 127.089844 121.464844 124.101562 C 125.683594 124.101562 129.726562 124.144531 133.769531 124.101562 C 137.636719 124.015625 141.414062 124.671875 145.109375 125.859375 C 155.523438 129.242188 163.390625 135.703125 168.617188 145.328125 C 168.96875 145.984375 168.96875 147.171875 168.617188 147.832031 C 165.851562 153.0625 162.15625 157.542969 157.324219 161.058594 C 150.46875 166.023438 142.953125 168.96875 134.472656 169.101562 C 126.34375 169.1875 118.210938 169.144531 110.039062 169.015625 C 110.960938 165.980469 111.972656 163.125 112.71875 160.226562 C 113.246094 158.160156 112.894531 157.851562 110.828125 157.851562 C 107.929688 157.851562 105.074219 157.894531 102.21875 157.851562 C 96.371094 157.808594 91.140625 159.609375 86.792969 163.476562 C 85.078125 164.96875 83.757812 166.90625 82.222656 168.617188 C 82.351562 168.792969 82.484375 168.96875 82.574219 169.101562 C 91.757812 169.101562 100.898438 169.101562 110.039062 169.234375 C 106.789062 174.507812 102.347656 178.023438 96.414062 179.648438 C 96.242188 179.734375 96.109375 180.132812 95.976562 180.351562 C 90.4375 180.351562 84.945312 180.351562 79.277344 180.175781 C 78.882812 176.132812 80.070312 172.617188 81.914062 169.101562 C 77.34375 169.101562 72.992188 169.144531 68.597656 169.101562 C 67.148438 169.058594 65.699219 168.96875 64.292969 168.707031 C 58.753906 167.652344 53.394531 166.203125 48.207031 163.914062 C 42.453125 161.367188 37.222656 158.117188 32.5625 153.941406 C 27.421875 149.328125 23.027344 144.054688 19.554688 137.945312 C 15.117188 130.164062 12.347656 121.816406 11.6875 112.984375 C 11.25 107.050781 11.382812 101.074219 12.613281 95.140625 C 14.765625 84.332031 19.378906 74.75 26.542969 66.488281 C 32.960938 59.148438 40.695312 53.4375 49.835938 49.789062 C 56.734375 47.066406 63.851562 45.351562 71.324219 45.351562 C 83.1875 45.351562 95.007812 45.351562 106.832031 45.351562 C 109.070312 45.308594 111.359375 45.085938 113.597656 45 C 118.34375 44.914062 122.429688 41.265625 123.664062 36.519531 C 124.585938 32.738281 122.695312 27.992188 119.75 25.578125 C 117.15625 23.46875 114.214844 22.894531 111.136719 22.894531 C 92.679688 22.808594 74.222656 22.808594 55.765625 22.851562 C 49.878906 22.894531 44.914062 20.65625 40.824219 16.65625 C 36.296875 12.261719 33.75 6.855469 34.101562 0.351562 M 129.726562 148.183594 C 129.726562 148.929688 129.8125 149.722656 129.726562 150.46875 C 129.550781 151.832031 130.121094 152.3125 131.484375 152.269531 C 134.164062 152.140625 136.890625 152.183594 139.570312 152.226562 C 140.625 152.269531 141.019531 151.875 140.976562 150.820312 C 140.933594 148.007812 140.933594 145.195312 140.976562 142.382812 C 141.019531 141.328125 140.625 140.933594 139.570312 140.976562 C 136.757812 141.019531 133.945312 141.019531 131.132812 140.976562 C 130.078125 140.933594 129.683594 141.328125 129.726562 142.382812 C 129.769531 144.183594 129.726562 146.03125 129.726562 148.183594 Z M 129.726562 148.183594 "/>
<path style=" stroke:none;fill-rule:nonzero;fill:rgb(3.137255%,37.647059%,33.72549%);fill-opacity:1;" d="M 121.332031 124.101562 C 122.210938 127.089844 123.179688 130.078125 123.96875 133.109375 C 124.453125 135.085938 124.144531 135.351562 122.125 135.351562 C 103.183594 135.351562 84.199219 135.527344 65.214844 135.265625 C 58.796875 135.175781 52.867188 132.625 47.726562 128.671875 C 37.925781 121.113281 33.179688 111.007812 34.1875 98.703125 C 35.507812 82.882812 46.671875 70.929688 62.359375 68.289062 C 64.203125 67.984375 66.09375 67.894531 67.9375 67.851562 C 82.222656 67.851562 96.503906 67.851562 110.785156 67.851562 C 112.9375 67.851562 113.203125 68.117188 112.675781 70.179688 C 111.929688 73.125 110.960938 75.980469 110.082031 79.015625 C 110.082031 79.144531 110.082031 79.101562 109.90625 79.101562 C 95.539062 79.101562 81.296875 79.058594 67.0625 79.144531 C 61.566406 79.144531 56.734375 81.253906 52.777344 84.945312 C 46.933594 90.4375 44.382812 97.207031 45.703125 105.25 C 47.375 115.75 56.292969 123.882812 66.710938 124.015625 C 84.902344 124.277344 103.140625 124.101562 121.332031 124.058594 C 121.332031 124.058594 121.332031 124.101562 121.332031 124.101562 Z M 121.332031 124.101562 "/>
<path style=" stroke:none;fill-rule:nonzero;fill:rgb(3.137255%,37.647059%,33.72549%);fill-opacity:1;" d="M 110.082031 169.101562 C 100.898438 169.101562 91.757812 169.101562 82.574219 169.101562 C 82.484375 168.96875 82.351562 168.792969 82.222656 168.617188 C 83.757812 166.90625 85.078125 164.96875 86.792969 163.476562 C 91.140625 159.609375 96.371094 157.808594 102.21875 157.851562 C 105.074219 157.894531 107.929688 157.851562 110.828125 157.851562 C 112.894531 157.851562 113.246094 158.160156 112.71875 160.226562 C 111.972656 163.125 110.960938 165.980469 110.039062 169.015625 C 110.039062 169.144531 110.039062 169.101562 110.082031 169.101562 Z M 110.082031 169.101562 "/>
<path style=" stroke:none;fill-rule:nonzero;fill:rgb(3.137255%,8.627451%,5.098039%);fill-opacity:1;" d="M 129.726562 148.007812 C 129.726562 146.03125 129.769531 144.183594 129.726562 142.382812 C 129.683594 141.328125 130.078125 140.933594 131.132812 140.976562 C 133.945312 141.019531 136.757812 141.019531 139.570312 140.976562 C 140.625 140.933594 141.019531 141.328125 140.976562 142.382812 C 140.933594 145.195312 140.933594 148.007812 140.976562 150.820312 C 141.019531 151.875 140.625 152.269531 139.570312 152.226562 C 136.890625 152.183594 134.164062 152.140625 131.484375 152.269531 C 130.121094 152.3125 129.550781 151.832031 129.726562 150.46875 C 129.8125 149.722656 129.726562 148.929688 129.726562 148.007812 Z M 129.726562 148.007812 "/>
<path style=" stroke:none;fill-rule:nonzero;fill:rgb(50.196078%,90.196078%,45.490196%);fill-opacity:1;" d="M 121.289062 123.96875 C 103.140625 124.101562 84.902344 124.277344 66.710938 124.015625 C 56.292969 123.882812 47.375 115.75 45.703125 105.25 C 44.382812 97.207031 46.933594 90.4375 52.777344 84.945312 C 56.734375 81.253906 61.566406 79.144531 67.0625 79.144531 C 81.296875 79.058594 95.539062 79.101562 109.90625 79.101562 C 105.601562 86.308594 99.316406 90.351562 90.703125 90.351562 C 83.628906 90.351562 76.554688 90.265625 69.476562 90.394531 C 67.0625 90.4375 64.644531 90.789062 62.402344 92.066406 C 56.46875 95.316406 55.328125 103.535156 59.105469 108.195312 C 61.214844 110.785156 63.675781 112.367188 67.0625 112.5 C 71.761719 112.632812 76.464844 112.808594 81.167969 112.851562 C 88.507812 112.894531 95.800781 112.851562 103.140625 112.851562 C 107.886719 112.851562 112.105469 114.609375 115.621094 117.640625 C 117.730469 119.488281 119.355469 121.773438 121.289062 123.96875 Z M 121.289062 123.96875 "/>
</g>
</svg>
