<?xml version="1.0" encoding="UTF-8"?>
<svg xmlns="http://www.w3.org/2000/svg" xmlns:xlink="http://www.w3.org/1999/xlink" width="24px" height="24px" viewBox="0 0 24 24" version="1.1">
<g id="surface1">
<path style=" stroke:none;fill-rule:nonzero;fill:rgb(11.372549%,72.54902%,32.941176%);fill-opacity:1;" d="M 4.546875 0.046875 C 8.609375 0.046875 12.675781 0.046875 16.742188 0.0625 C 16.773438 0.0976562 16.792969 0.132812 16.820312 0.136719 C 17.417969 0.222656 17.96875 0.449219 18.488281 0.753906 C 19.351562 1.261719 20.019531 1.964844 20.480469 2.851562 C 21.003906 3.863281 21.15625 4.945312 21.003906 6.074219 C 20.847656 7.222656 20.351562 8.210938 19.539062 9.015625 C 19.183594 9.363281 18.75 9.640625 18.328125 9.90625 C 17.675781 10.316406 16.941406 10.511719 16.171875 10.542969 C 15.675781 10.5625 15.175781 10.550781 14.675781 10.535156 C 14.792969 10.128906 14.921875 9.75 15.023438 9.359375 C 15.097656 9.078125 15.058594 9.046875 14.773438 9.046875 C 12.867188 9.046875 10.964844 9.046875 9.058594 9.050781 C 8.8125 9.050781 8.558594 9.0625 8.316406 9.105469 C 6.222656 9.457031 4.738281 11.050781 4.5625 13.160156 C 4.425781 14.800781 5.054688 16.152344 6.367188 17.160156 C 7.050781 17.683594 7.839844 18.023438 8.695312 18.035156 C 11.226562 18.070312 13.753906 18.046875 16.285156 18.046875 C 16.554688 18.046875 16.59375 18.011719 16.527344 17.746094 C 16.425781 17.34375 16.292969 16.945312 16.195312 16.542969 C 16.757812 16.546875 17.296875 16.554688 17.835938 16.546875 C 18.351562 16.539062 18.855469 16.621094 19.34375 16.78125 C 20.734375 17.230469 21.785156 18.09375 22.480469 19.378906 C 22.527344 19.46875 22.527344 19.625 22.480469 19.714844 C 22.109375 20.410156 21.621094 21.003906 20.976562 21.476562 C 20.066406 22.140625 19.0625 22.53125 17.929688 22.542969 C 16.84375 22.558594 15.757812 22.550781 14.675781 22.535156 C 14.796875 22.132812 14.929688 21.75 15.03125 21.359375 C 15.101562 21.085938 15.054688 21.046875 14.773438 21.046875 C 14.394531 21.046875 14.011719 21.050781 13.628906 21.046875 C 12.847656 21.039062 12.152344 21.277344 11.570312 21.796875 C 11.34375 22 11.164062 22.253906 10.964844 22.484375 C 10.980469 22.503906 10.996094 22.527344 11.011719 22.546875 C 12.234375 22.546875 13.457031 22.546875 14.667969 22.5625 C 14.234375 23.265625 13.644531 23.738281 12.859375 23.953125 C 12.832031 23.960938 12.816406 24.015625 12.796875 24.046875 C 12.0625 24.046875 11.324219 24.046875 10.570312 24.023438 C 10.515625 23.484375 10.675781 23.015625 10.921875 22.546875 C 10.3125 22.546875 9.730469 22.550781 9.144531 22.542969 C 8.953125 22.542969 8.757812 22.53125 8.570312 22.496094 C 7.835938 22.351562 7.117188 22.160156 6.425781 21.855469 C 5.660156 21.515625 4.960938 21.078125 4.34375 20.527344 C 3.652344 19.910156 3.066406 19.207031 2.605469 18.394531 C 2.011719 17.355469 1.648438 16.242188 1.5625 15.0625 C 1.503906 14.273438 1.519531 13.476562 1.679688 12.683594 C 1.96875 11.242188 2.585938 9.96875 3.542969 8.867188 C 4.394531 7.882812 5.425781 7.125 6.648438 6.640625 C 7.566406 6.273438 8.515625 6.042969 9.511719 6.046875 C 11.089844 6.046875 12.667969 6.050781 14.246094 6.042969 C 14.546875 6.042969 14.847656 6.007812 15.148438 6 C 15.78125 5.984375 16.324219 5.503906 16.484375 4.867188 C 16.613281 4.367188 16.359375 3.730469 15.96875 3.410156 C 15.621094 3.125 15.226562 3.054688 14.816406 3.050781 C 12.355469 3.042969 9.898438 3.042969 7.4375 3.050781 C 6.652344 3.050781 5.988281 2.753906 5.441406 2.222656 C 4.84375 1.632812 4.5 0.914062 4.546875 0.046875 M 17.296875 19.757812 C 17.296875 19.859375 17.304688 19.960938 17.296875 20.058594 C 17.273438 20.246094 17.347656 20.308594 17.53125 20.300781 C 17.890625 20.289062 18.25 20.292969 18.605469 20.296875 C 18.746094 20.300781 18.800781 20.25 18.796875 20.109375 C 18.792969 19.734375 18.792969 19.359375 18.796875 18.988281 C 18.800781 18.847656 18.75 18.792969 18.609375 18.796875 C 18.234375 18.800781 17.859375 18.800781 17.488281 18.796875 C 17.34375 18.792969 17.292969 18.84375 17.296875 18.984375 C 17.300781 19.226562 17.296875 19.46875 17.296875 19.757812 Z M 17.296875 19.757812 "/>
<path style=" stroke:none;fill-rule:nonzero;fill:rgb(3.137255%,37.647059%,33.72549%);fill-opacity:1;" d="M 16.175781 16.542969 C 16.292969 16.945312 16.425781 17.34375 16.527344 17.746094 C 16.59375 18.011719 16.554688 18.046875 16.285156 18.046875 C 13.753906 18.046875 11.226562 18.070312 8.695312 18.035156 C 7.839844 18.023438 7.050781 17.683594 6.367188 17.160156 C 5.054688 16.152344 4.425781 14.800781 4.5625 13.160156 C 4.738281 11.050781 6.222656 9.457031 8.316406 9.105469 C 8.558594 9.0625 8.8125 9.050781 9.058594 9.050781 C 10.964844 9.046875 12.867188 9.046875 14.773438 9.046875 C 15.058594 9.046875 15.097656 9.078125 15.023438 9.359375 C 14.921875 9.75 14.792969 10.128906 14.675781 10.535156 C 14.675781 10.550781 14.675781 10.546875 14.652344 10.546875 C 12.734375 10.546875 10.839844 10.539062 8.941406 10.550781 C 8.210938 10.554688 7.5625 10.832031 7.035156 11.328125 C 6.257812 12.058594 5.921875 12.960938 6.089844 14.035156 C 6.316406 15.433594 7.507812 16.515625 8.894531 16.535156 C 11.320312 16.574219 13.75 16.542969 16.175781 16.542969 C 16.175781 16.542969 16.175781 16.546875 16.175781 16.542969 Z M 16.175781 16.542969 "/>
<path style=" stroke:none;fill-rule:nonzero;fill:rgb(3.137255%,37.647059%,33.72549%);fill-opacity:1;" d="M 14.675781 22.546875 C 13.457031 22.546875 12.234375 22.546875 11.011719 22.546875 C 10.996094 22.527344 10.980469 22.503906 10.964844 22.484375 C 11.164062 22.253906 11.34375 22 11.570312 21.796875 C 12.152344 21.277344 12.847656 21.039062 13.628906 21.046875 C 14.011719 21.050781 14.394531 21.046875 14.773438 21.046875 C 15.054688 21.046875 15.101562 21.085938 15.03125 21.359375 C 14.929688 21.75 14.796875 22.132812 14.675781 22.535156 C 14.675781 22.550781 14.671875 22.546875 14.675781 22.546875 Z M 14.675781 22.546875 "/>
<path style=" stroke:none;fill-rule:nonzero;fill:rgb(3.137255%,8.627451%,5.098039%);fill-opacity:1;" d="M 17.296875 19.734375 C 17.296875 19.46875 17.300781 19.226562 17.296875 18.984375 C 17.292969 18.84375 17.34375 18.792969 17.488281 18.796875 C 17.859375 18.800781 18.234375 18.800781 18.609375 18.796875 C 18.75 18.792969 18.800781 18.847656 18.796875 18.988281 C 18.792969 19.359375 18.792969 19.734375 18.796875 20.109375 C 18.800781 20.25 18.746094 20.300781 18.605469 20.296875 C 18.25 20.292969 17.890625 20.289062 17.53125 20.300781 C 17.347656 20.308594 17.273438 20.246094 17.296875 20.058594 C 17.304688 19.960938 17.296875 19.859375 17.296875 19.734375 Z M 17.296875 19.734375 "/>
<path style=" stroke:none;fill-rule:nonzero;fill:rgb(50.196078%,90.196078%,45.490196%);fill-opacity:1;" d="M 16.171875 16.527344 C 13.75 16.542969 11.320312 16.574219 8.894531 16.535156 C 7.507812 16.515625 6.316406 15.433594 6.089844 14.035156 C 5.921875 12.960938 6.257812 12.058594 7.035156 11.328125 C 7.5625 10.832031 8.210938 10.554688 8.941406 10.550781 C 10.839844 10.539062 12.734375 10.546875 14.65625 10.546875 C 14.082031 11.507812 13.242188 12.046875 12.09375 12.046875 C 11.148438 12.046875 10.207031 12.035156 9.261719 12.054688 C 8.9375 12.058594 8.617188 12.105469 8.316406 12.273438 C 7.527344 12.710938 7.375 13.804688 7.878906 14.425781 C 8.160156 14.769531 8.492188 14.984375 8.9375 15 C 9.566406 15.019531 10.195312 15.039062 10.824219 15.042969 C 11.800781 15.050781 12.773438 15.046875 13.75 15.046875 C 14.386719 15.046875 14.945312 15.28125 15.417969 15.6875 C 15.695312 15.929688 15.917969 16.234375 16.171875 16.527344 Z M 16.171875 16.527344 "/>
</g>
</svg>
