<?xml version="1.0" encoding="UTF-8"?>
<svg xmlns="http://www.w3.org/2000/svg" xmlns:xlink="http://www.w3.org/1999/xlink" width="24px" height="24px" viewBox="0 0 24 24" version="1.1">
<g id="surface1">
<path style=" stroke:none;fill-rule:nonzero;fill:rgb(30, 215, 96);fill-opacity:1;" d="M 24.011719 11.96875 C 24.042969 13.144531 23.78125 14.621094 23.765625 14.695312 C 23.105469 17.96875 21.203125 20.117188 18.496094 21.867188 C 17.992188 22.195312 17.195312 22.179688 16.875 21.835938 C 16.511719 21.441406 16.28125 20.945312 16.585938 20.4375 C 16.777344 20.113281 17.09375 19.832031 17.417969 19.621094 C 19.859375 18.039062 21.414062 15.917969 21.734375 12.945312 C 22.019531 10.261719 21.164062 7.972656 19.394531 6.046875 C 17.910156 4.433594 16 3.464844 13.820312 3.125 C 10.933594 2.679688 8.292969 3.316406 6.019531 5.164062 C 4.027344 6.785156 2.746094 8.828125 2.507812 11.46875 C 2.277344 14.011719 3.316406 16.109375 4.640625 18.140625 C 5.480469 19.433594 6.296875 20.742188 7.117188 22.046875 C 7.21875 22.210938 7.136719 22.074219 7.5 22.742188 C 6.816406 22.382812 5.90625 22.003906 5.242188 21.609375 C 2.515625 20 0.984375 17.554688 0.332031 14.507812 C 0.320312 14.460938 0.0546875 13.101562 0.101562 11.535156 C 0.1875 10.066406 0.320312 9.664062 0.332031 9.617188 C 0.957031 7.121094 2.226562 5.035156 4.222656 3.390625 C 6.34375 1.640625 8.789062 0.742188 11.511719 0.609375 C 14.007812 0.488281 16.347656 1.105469 18.496094 2.363281 C 21.011719 3.832031 22.664062 5.738281 23.523438 8.582031 C 23.613281 8.886719 24.011719 10.351562 24.011719 11.96875 Z M 24.011719 11.96875 "/>
<path style=" stroke:none;fill-rule:nonzero;fill:rgb(30, 215, 96);fill-opacity:1;" d="M 15.882812 4.640625 C 17.378906 5.292969 18.515625 6.296875 19.449219 7.570312 C 21.730469 10.6875 21.257812 15.023438 18.46875 17.695312 C 17.914062 18.226562 17.308594 18.722656 16.660156 19.128906 C 15.988281 19.554688 15.238281 19.335938 14.894531 18.742188 C 14.539062 18.121094 14.714844 17.433594 15.425781 17.019531 C 17.046875 16.085938 17.957031 14.6875 18.28125 12.875 C 18.589844 11.179688 18.121094 9.683594 16.988281 8.421875 C 15.550781 6.816406 13.722656 6.050781 11.5625 6.25 C 8.933594 6.492188 6.550781 8.445312 5.992188 11.105469 C 5.617188 12.886719 6.308594 14.351562 7.203125 15.792969 C 8.761719 18.292969 10.292969 20.808594 11.832031 23.320312 C 11.867188 23.382812 11.855469 23.34375 12.03125 23.628906 C 11.039062 23.496094 9.933594 23.429688 9.003906 23.226562 C 8.769531 23.179688 8.601562 22.769531 8.433594 22.503906 C 7.265625 20.671875 6.117188 18.824219 4.933594 17.003906 C 4.03125 15.613281 3.402344 14.125 3.378906 12.464844 C 3.351562 10.5625 3.863281 8.789062 5.050781 7.253906 C 7.082031 4.621094 9.835938 3.625 13.058594 3.871094 C 14 3.945312 14.957031 4.230469 15.882812 4.640625 Z M 15.882812 4.640625 "/>
<path style=" stroke:none;fill-rule:nonzero;fill:rgb(30, 215, 96);fill-opacity:1;" d="M 11.910156 9.480469 C 10.089844 9.855469 9.46875 10.78125 9.410156 12.097656 C 9.386719 12.726562 9.773438 13.425781 10.125 14.003906 C 11.960938 17.003906 13.84375 19.976562 15.796875 23.097656 C 14.917969 23.25 14.027344 23.429688 13.257812 23.519531 C 13.113281 23.535156 13.011719 23.308594 12.914062 23.148438 C 11.59375 21.058594 10.292969 18.960938 8.980469 16.867188 C 8.546875 16.179688 8.105469 15.5 7.65625 14.820312 C 6.546875 13.148438 6.5625 10.988281 7.6875 9.34375 C 9.371094 6.882812 13.15625 6.355469 15.417969 8.15625 C 17.964844 10.1875 18.054688 13.714844 15.585938 15.898438 C 15.167969 16.269531 14.660156 16.488281 14.058594 16.449219 C 13.515625 16.414062 13.25 16.113281 13.054688 15.660156 C 12.875 15.242188 12.941406 14.882812 13.230469 14.558594 C 13.414062 14.347656 13.597656 14.117188 13.832031 13.976562 C 14.605469 13.515625 14.929688 12.785156 14.851562 11.96875 C 14.757812 10.976562 14.238281 10.15625 13.289062 9.742188 C 12.882812 9.566406 12.40625 9.5625 11.910156 9.480469 Z M 11.910156 9.480469 "/>
</g>
</svg>
