<svg xmlns="http://www.w3.org/2000/svg" viewBox="0 0 24 24" fill="#FFFFFF">
    <path d="M 11.5 0.359375 C 5.152344 0.359375 0 5.351562 0 11.5 C 0 17.648438 5.152344 22.640625 11.5 22.640625 C 17.847656 22.640625 23 17.648438 23 11.5 C 23 5.351562 17.847656 0.359375 11.5 0.359375 Z M 16.167969 16.75 C 15.976562 16.75 15.855469 16.691406 15.671875 16.589844 C 12.78125 14.902344 9.414062 14.828125 6.089844 15.488281 C 5.90625 15.535156 5.671875 15.605469 5.535156 15.605469 C 5.085938 15.605469 4.804688 15.261719 4.804688 14.894531 C 4.804688 14.433594 5.085938 14.214844 5.433594 14.140625 C 9.234375 13.328125 13.113281 13.398438 16.425781 15.316406 C 16.707031 15.492188 16.875 15.652344 16.875 16.058594 C 16.875 16.46875 16.546875 16.75 16.167969 16.75 Z M 17.417969 13.804688 C 17.175781 13.804688 17.011719 13.699219 16.847656 13.617188 C 13.949219 11.953125 9.625 11.285156 5.78125 12.296875 C 5.558594 12.351562 5.4375 12.410156 5.230469 12.410156 C 4.734375 12.410156 4.332031 12.019531 4.332031 11.539062 C 4.332031 11.058594 4.570312 10.742188 5.050781 10.609375 C 6.339844 10.261719 7.65625 10 9.585938 10 C 12.59375 10 15.5 10.722656 17.792969 12.042969 C 18.167969 12.257812 18.316406 12.539062 18.316406 12.929688 C 18.3125 13.414062 17.921875 13.804688 17.417969 13.804688 Z M 18.855469 10.382812 C 18.613281 10.382812 18.464844 10.324219 18.257812 10.207031 C 14.953125 8.296875 9.050781 7.839844 5.230469 8.871094 C 5.0625 8.917969 4.855469 8.988281 4.632812 8.988281 C 4.019531 8.988281 3.550781 8.527344 3.550781 7.929688 C 3.550781 7.316406 3.941406 6.972656 4.359375 6.855469 C 5.992188 6.390625 7.816406 6.171875 9.808594 6.171875 C 13.191406 6.171875 16.738281 6.855469 19.332031 8.320312 C 19.695312 8.523438 19.929688 8.800781 19.929688 9.335938 C 19.929688 9.945312 19.421875 10.382812 18.855469 10.382812 Z M 18.855469 10.382812 "/>
</svg>